<?xml version="1.0" standalone="no"?>
<!DOCTYPE svg PUBLIC "-//W3C//DTD SVG 20010904//EN"
 "http://www.w3.org/TR/2001/REC-SVG-20010904/DTD/svg10.dtd">
<svg version="1.0" xmlns="http://www.w3.org/2000/svg"
 width="180.000000pt" height="180.000000pt" viewBox="0 0 180.000000 180.000000"
 preserveAspectRatio="xMidYMid meet">
<metadata>
Created by potrace 1.11, written by Peter Selinger 2001-2013
</metadata>
<g transform="translate(0.000000,180.000000) scale(0.100000,-0.100000)"
fill="#000000" stroke="none">
<path d="M206 1784 c-76 -28 -132 -78 -173 -155 l-28 -54 0 -680 0 -680 24
-49 c29 -60 87 -117 145 -145 41 -21 56 -21 731 -21 679 0 689 0 732 21 54 26
116 89 143 144 19 40 20 59 20 728 0 681 0 688 -21 733 -27 56 -88 117 -148
146 l-46 23 -670 1 c-551 1 -677 -1 -709 -12z"/>
</g>
</svg>
